<?xml version="1.0" encoding="UTF-8" standalone="no"?>
<!-- Created with Inkscape (http://www.inkscape.org/) -->

<svg
   xmlns:dc="http://purl.org/dc/elements/1.1/"
   xmlns:cc="http://creativecommons.org/ns#"
   xmlns:rdf="http://www.w3.org/1999/02/22-rdf-syntax-ns#"
   xmlns:svg="http://www.w3.org/2000/svg"
   xmlns="http://www.w3.org/2000/svg"
   xmlns:sodipodi="http://sodipodi.sourceforge.net/DTD/sodipodi-0.dtd"
   xmlns:inkscape="http://www.inkscape.org/namespaces/inkscape"
   id="svg3336"
   version="1.1"
   inkscape:version="0.91 r13725"
   width="783.09979"
   height="708.69446"
   viewBox="0 0 783.09979 708.69447"
   sodipodi:docname="bactismash_icon.svg">
  <metadata
     id="metadata3342">
    <rdf:RDF>
      <cc:Work
         rdf:about="">
        <dc:format>image/svg+xml</dc:format>
        <dc:type
           rdf:resource="http://purl.org/dc/dcmitype/StillImage" />
        <dc:title></dc:title>
      </cc:Work>
    </rdf:RDF>
  </metadata>
  <defs
     id="defs3340">
    <inkscape:path-effect
       effect="powerstroke"
       id="path-effect4307"
       is_visible="true"
       offset_points="0,3"
       sort_points="true"
       interpolator_type="Linear"
       interpolator_beta="0.2"
       start_linecap_type="zerowidth"
       linejoin_type="round"
       miter_limit="4"
       end_linecap_type="zerowidth"
       cusp_linecap_type="round" />
    <inkscape:path-effect
       effect="powerstroke"
       id="path-effect4303"
       is_visible="true"
       offset_points="0,3"
       sort_points="true"
       interpolator_type="Linear"
       interpolator_beta="0.2"
       start_linecap_type="zerowidth"
       linejoin_type="round"
       miter_limit="4"
       end_linecap_type="zerowidth"
       cusp_linecap_type="round" />
    <inkscape:path-effect
       effect="powerstroke"
       id="path-effect4299"
       is_visible="true"
       offset_points="0,3"
       sort_points="true"
       interpolator_type="Linear"
       interpolator_beta="0.2"
       start_linecap_type="zerowidth"
       linejoin_type="round"
       miter_limit="4"
       end_linecap_type="zerowidth"
       cusp_linecap_type="round" />
    <inkscape:path-effect
       effect="powerstroke"
       id="path-effect4295"
       is_visible="true"
       offset_points="0,3"
       sort_points="true"
       interpolator_type="Linear"
       interpolator_beta="0.2"
       start_linecap_type="zerowidth"
       linejoin_type="round"
       miter_limit="4"
       end_linecap_type="zerowidth"
       cusp_linecap_type="round" />
    <inkscape:path-effect
       effect="powerstroke"
       id="path-effect4291"
       is_visible="true"
       offset_points="0,3"
       sort_points="true"
       interpolator_type="Linear"
       interpolator_beta="0.2"
       start_linecap_type="zerowidth"
       linejoin_type="round"
       miter_limit="4"
       end_linecap_type="zerowidth"
       cusp_linecap_type="round" />
    <inkscape:path-effect
       effect="powerstroke"
       id="path-effect4287"
       is_visible="true"
       offset_points="0,3"
       sort_points="true"
       interpolator_type="Linear"
       interpolator_beta="0.2"
       start_linecap_type="zerowidth"
       linejoin_type="round"
       miter_limit="4"
       end_linecap_type="zerowidth"
       cusp_linecap_type="round" />
    <inkscape:path-effect
       effect="powerstroke"
       id="path-effect4283"
       is_visible="true"
       offset_points="0,3"
       sort_points="true"
       interpolator_type="Linear"
       interpolator_beta="0.2"
       start_linecap_type="zerowidth"
       linejoin_type="round"
       miter_limit="4"
       end_linecap_type="zerowidth"
       cusp_linecap_type="round" />
    <inkscape:path-effect
       effect="powerstroke"
       id="path-effect4279"
       is_visible="true"
       offset_points="0,3"
       sort_points="true"
       interpolator_type="Linear"
       interpolator_beta="0.2"
       start_linecap_type="zerowidth"
       linejoin_type="round"
       miter_limit="4"
       end_linecap_type="zerowidth"
       cusp_linecap_type="round" />
    <inkscape:path-effect
       effect="powerstroke"
       id="path-effect4275"
       is_visible="true"
       offset_points="0,3"
       sort_points="true"
       interpolator_type="Linear"
       interpolator_beta="0.2"
       start_linecap_type="zerowidth"
       linejoin_type="round"
       miter_limit="4"
       end_linecap_type="zerowidth"
       cusp_linecap_type="round" />
    <inkscape:path-effect
       effect="powerstroke"
       id="path-effect4271"
       is_visible="true"
       offset_points="0,3"
       sort_points="true"
       interpolator_type="Linear"
       interpolator_beta="0.2"
       start_linecap_type="zerowidth"
       linejoin_type="round"
       miter_limit="4"
       end_linecap_type="zerowidth"
       cusp_linecap_type="round" />
    <inkscape:path-effect
       effect="powerstroke"
       id="path-effect4267"
       is_visible="true"
       offset_points="0,3"
       sort_points="true"
       interpolator_type="Linear"
       interpolator_beta="0.2"
       start_linecap_type="zerowidth"
       linejoin_type="round"
       miter_limit="4"
       end_linecap_type="zerowidth"
       cusp_linecap_type="round" />
    <inkscape:path-effect
       effect="powerstroke"
       id="path-effect4263"
       is_visible="true"
       offset_points="0,3"
       sort_points="true"
       interpolator_type="Linear"
       interpolator_beta="0.2"
       start_linecap_type="zerowidth"
       linejoin_type="round"
       miter_limit="4"
       end_linecap_type="zerowidth"
       cusp_linecap_type="round" />
    <inkscape:path-effect
       effect="powerstroke"
       id="path-effect4259"
       is_visible="true"
       offset_points="0,3"
       sort_points="true"
       interpolator_type="Linear"
       interpolator_beta="0.2"
       start_linecap_type="zerowidth"
       linejoin_type="round"
       miter_limit="4"
       end_linecap_type="zerowidth"
       cusp_linecap_type="round" />
    <inkscape:path-effect
       effect="powerstroke"
       id="path-effect4255"
       is_visible="true"
       offset_points="0,3"
       sort_points="true"
       interpolator_type="Linear"
       interpolator_beta="0.2"
       start_linecap_type="zerowidth"
       linejoin_type="round"
       miter_limit="4"
       end_linecap_type="zerowidth"
       cusp_linecap_type="round" />
    <inkscape:path-effect
       effect="powerstroke"
       id="path-effect4251"
       is_visible="true"
       offset_points="0,3"
       sort_points="true"
       interpolator_type="Linear"
       interpolator_beta="0.2"
       start_linecap_type="zerowidth"
       linejoin_type="round"
       miter_limit="4"
       end_linecap_type="zerowidth"
       cusp_linecap_type="round" />
    <inkscape:path-effect
       effect="powerstroke"
       id="path-effect4247"
       is_visible="true"
       offset_points="0,3"
       sort_points="true"
       interpolator_type="Linear"
       interpolator_beta="0.2"
       start_linecap_type="zerowidth"
       linejoin_type="round"
       miter_limit="4"
       end_linecap_type="zerowidth"
       cusp_linecap_type="round" />
    <inkscape:path-effect
       effect="powerstroke"
       id="path-effect4243"
       is_visible="true"
       offset_points="0,3"
       sort_points="true"
       interpolator_type="Linear"
       interpolator_beta="0.2"
       start_linecap_type="zerowidth"
       linejoin_type="round"
       miter_limit="4"
       end_linecap_type="zerowidth"
       cusp_linecap_type="round" />
    <inkscape:path-effect
       effect="powerstroke"
       id="path-effect4239"
       is_visible="true"
       offset_points="0,3"
       sort_points="true"
       interpolator_type="Linear"
       interpolator_beta="0.2"
       start_linecap_type="zerowidth"
       linejoin_type="round"
       miter_limit="4"
       end_linecap_type="zerowidth"
       cusp_linecap_type="round" />
    <inkscape:path-effect
       effect="powerstroke"
       id="path-effect4235"
       is_visible="true"
       offset_points="0,3"
       sort_points="true"
       interpolator_type="Linear"
       interpolator_beta="0.2"
       start_linecap_type="zerowidth"
       linejoin_type="round"
       miter_limit="4"
       end_linecap_type="zerowidth"
       cusp_linecap_type="round" />
    <inkscape:path-effect
       effect="powerstroke"
       id="path-effect4231"
       is_visible="true"
       offset_points="0,3"
       sort_points="true"
       interpolator_type="Linear"
       interpolator_beta="0.2"
       start_linecap_type="zerowidth"
       linejoin_type="round"
       miter_limit="4"
       end_linecap_type="zerowidth"
       cusp_linecap_type="round" />
    <inkscape:path-effect
       effect="powerstroke"
       id="path-effect4227"
       is_visible="true"
       offset_points="0,3"
       sort_points="true"
       interpolator_type="Linear"
       interpolator_beta="0.2"
       start_linecap_type="zerowidth"
       linejoin_type="round"
       miter_limit="4"
       end_linecap_type="zerowidth"
       cusp_linecap_type="round" />
    <inkscape:path-effect
       effect="powerstroke"
       id="path-effect4219"
       is_visible="true"
       offset_points="0,3"
       sort_points="true"
       interpolator_type="Linear"
       interpolator_beta="0.2"
       start_linecap_type="zerowidth"
       linejoin_type="round"
       miter_limit="4"
       end_linecap_type="zerowidth"
       cusp_linecap_type="round" />
    <inkscape:path-effect
       effect="powerstroke"
       id="path-effect4215"
       is_visible="true"
       offset_points="0,3"
       sort_points="true"
       interpolator_type="Linear"
       interpolator_beta="0.2"
       start_linecap_type="zerowidth"
       linejoin_type="round"
       miter_limit="4"
       end_linecap_type="zerowidth"
       cusp_linecap_type="round" />
    <inkscape:path-effect
       effect="powerstroke"
       id="path-effect4211"
       is_visible="true"
       offset_points="0,3"
       sort_points="true"
       interpolator_type="Linear"
       interpolator_beta="0.2"
       start_linecap_type="zerowidth"
       linejoin_type="round"
       miter_limit="4"
       end_linecap_type="zerowidth"
       cusp_linecap_type="round" />
    <inkscape:path-effect
       effect="powerstroke"
       id="path-effect4207"
       is_visible="true"
       offset_points="0,3"
       sort_points="true"
       interpolator_type="Linear"
       interpolator_beta="0.2"
       start_linecap_type="zerowidth"
       linejoin_type="round"
       miter_limit="4"
       end_linecap_type="zerowidth"
       cusp_linecap_type="round" />
    <inkscape:path-effect
       effect="powerstroke"
       id="path-effect4203"
       is_visible="true"
       offset_points="0,3"
       sort_points="true"
       interpolator_type="Linear"
       interpolator_beta="0.2"
       start_linecap_type="zerowidth"
       linejoin_type="round"
       miter_limit="4"
       end_linecap_type="zerowidth"
       cusp_linecap_type="round" />
    <inkscape:path-effect
       effect="powerstroke"
       id="path-effect4195"
       is_visible="true"
       offset_points="0,3"
       sort_points="true"
       interpolator_type="Linear"
       interpolator_beta="0.2"
       start_linecap_type="zerowidth"
       linejoin_type="round"
       miter_limit="4"
       end_linecap_type="zerowidth"
       cusp_linecap_type="round" />
    <inkscape:path-effect
       effect="powerstroke"
       id="path-effect4191"
       is_visible="true"
       offset_points="0,3"
       sort_points="true"
       interpolator_type="Linear"
       interpolator_beta="0.2"
       start_linecap_type="zerowidth"
       linejoin_type="round"
       miter_limit="4"
       end_linecap_type="zerowidth"
       cusp_linecap_type="round" />
    <inkscape:path-effect
       effect="powerstroke"
       id="path-effect4209"
       is_visible="true"
       offset_points="0.039536791,2.4489479"
       sort_points="true"
       interpolator_type="Linear"
       interpolator_beta="0.2"
       start_linecap_type="zerowidth"
       linejoin_type="round"
       miter_limit="4"
       end_linecap_type="zerowidth"
       cusp_linecap_type="round" />
    <inkscape:path-effect
       effect="powerstroke"
       id="path-effect4166"
       is_visible="true"
       offset_points="0.31428378,1.323707"
       sort_points="true"
       interpolator_type="Linear"
       interpolator_beta="0.2"
       start_linecap_type="zerowidth"
       linejoin_type="round"
       miter_limit="4"
       end_linecap_type="zerowidth"
       cusp_linecap_type="round" />
    <inkscape:path-effect
       effect="powerstroke"
       id="path-effect4162"
       is_visible="true"
       offset_points="0,3"
       sort_points="true"
       interpolator_type="Linear"
       interpolator_beta="0.2"
       start_linecap_type="zerowidth"
       linejoin_type="round"
       miter_limit="4"
       end_linecap_type="zerowidth"
       cusp_linecap_type="round" />
    <inkscape:path-effect
       effect="powerstroke"
       id="path-effect4158"
       is_visible="true"
       offset_points="0,3"
       sort_points="true"
       interpolator_type="Linear"
       interpolator_beta="0.2"
       start_linecap_type="zerowidth"
       linejoin_type="round"
       miter_limit="4"
       end_linecap_type="zerowidth"
       cusp_linecap_type="round" />
    <inkscape:path-effect
       effect="powerstroke"
       id="path-effect4166-3"
       is_visible="true"
       offset_points="0.31428378,1.323707"
       sort_points="true"
       interpolator_type="Linear"
       interpolator_beta="0.2"
       start_linecap_type="zerowidth"
       linejoin_type="round"
       miter_limit="4"
       end_linecap_type="zerowidth"
       cusp_linecap_type="round" />
    <inkscape:path-effect
       effect="powerstroke"
       id="path-effect4209-3"
       is_visible="true"
       offset_points="0,3"
       sort_points="true"
       interpolator_type="Linear"
       interpolator_beta="0.2"
       start_linecap_type="zerowidth"
       linejoin_type="round"
       miter_limit="4"
       end_linecap_type="zerowidth"
       cusp_linecap_type="round" />
    <inkscape:path-effect
       effect="powerstroke"
       id="path-effect4209-3-7"
       is_visible="true"
       offset_points="0,3"
       sort_points="true"
       interpolator_type="Linear"
       interpolator_beta="0.2"
       start_linecap_type="zerowidth"
       linejoin_type="round"
       miter_limit="4"
       end_linecap_type="zerowidth"
       cusp_linecap_type="round" />
  </defs>
  <sodipodi:namedview
     pagecolor="#ffffff"
     bordercolor="#666666"
     borderopacity="1"
     objecttolerance="10"
     gridtolerance="10"
     guidetolerance="10"
     inkscape:pageopacity="0"
     inkscape:pageshadow="2"
     inkscape:window-width="1920"
     inkscape:window-height="1176"
     id="namedview3338"
     showgrid="false"
     inkscape:zoom="0.67552055"
     inkscape:cx="297.96956"
     inkscape:cy="674.25387"
     inkscape:window-x="1920"
     inkscape:window-y="0"
     inkscape:window-maximized="1"
     inkscape:current-layer="svg3336"
     fit-margin-top="0"
     fit-margin-left="0"
     fit-margin-right="0"
     fit-margin-bottom="0" />
  <path
     style="fill:#810e15;fill-opacity:1;fill-rule:nonzero;stroke:none;stroke-width:6;stroke-miterlimit:4;stroke-dasharray:none;stroke-opacity:1"
     d="M 644.61451,309.48259 509.58269,182.82483"
     id="path4152"
     inkscape:connector-curvature="0" />
  <path
     style="opacity:1;fill:#810e15;fill-opacity:1;fill-rule:nonzero;stroke:#000000;stroke-width:6;stroke-miterlimit:4;stroke-dasharray:none;stroke-opacity:1"
     d="M 211.71039,412.42345 C 204.88422,400.94231 200.66838,385.90333 204.2869,373.04566 219.98152,317.27803 440.66288,66.29527 593.61628,47.3709 c 58.90561,-7.28818 112.5438,62.35235 133.43196,117.91019 7.67724,20.41973 6.91089,49.31637 -8.34325,64.91178 -79.20149,80.9734 -187.27497,272.50489 -365.64393,297.54831 -53.24215,7.47532 -110.2749,-63.05041 -141.35067,-115.31773 z"
     id="path4186"
     inkscape:connector-curvature="0"
     sodipodi:nodetypes="assassa" />
  <path
     style="opacity:1;fill:#000000;fill-opacity:1;fill-rule:nonzero;stroke:none;stroke-width:6;stroke-miterlimit:4;stroke-dasharray:none;stroke-opacity:1"
     d="m 229.19869,437.08896 c -1.45137,-0.85626 -3.11133,-1.57982 -4.94206,-2.16591 -9.05014,1.26666 -19.87451,6.0569 -31.24228,12.77537 -13.56888,8.01935 -28.25331,18.98886 -42.18364,30.69878 -13.93955,11.71766 -27.17216,24.21742 -37.8376,35.32624 -10.65228,11.0951 -18.792703,20.84796 -22.519589,27.10309 -15.92227,26.27561 -22.711152,56.77221 -33.222806,80.64011 C 46.686658,645.45354 32.097557,663.69428 0,666.15295 c 32.189511,-2.0477 47.29222,-20.01566 58.389904,-44.17379 11.153201,-24.27899 17.981126,-53.86184 34.211505,-79.84352 3.731047,-5.8643 11.872711,-15.33001 22.629761,-26.23419 10.73949,-10.88639 24.02527,-23.15026 37.99445,-34.62186 13.97787,-11.47873 28.59289,-22.12521 41.98835,-29.8027 11.3306,-6.49404 21.55658,-10.72988 29.67504,-11.69716 1.39058,-0.99973 2.82802,-1.91692 4.30968,-2.69077 z"
     id="path4207"
     inkscape:path-effect="#path-effect4209"
     inkscape:original-d="M 229.19869,437.08896 C 192.05203,436.12864 106.44436,517.2504 91.53747,541.48108 59.389372,593.73679 64.28563,661.64627 0,666.15295"
     inkscape:connector-curvature="0"
     sodipodi:nodetypes="csc" />
  <path
     style="opacity:1;fill:#000000;fill-opacity:1;fill-rule:nonzero;stroke:none;stroke-width:6;stroke-miterlimit:4;stroke-dasharray:none;stroke-opacity:1"
     d="m 248.43239,463.7347 c -14.08043,3.3544 -24.69656,11.32257 -33.48118,21.43968 -8.72185,10.04481 -15.84899,22.46485 -22.85744,34.79383 -7.07045,12.43806 -14.09808,24.93225 -22.79116,35.66397 -8.66144,10.69266 -18.93123,19.57163 -32.44479,24.69183 -11.02617,4.20217 -20.16842,12.87531 -28.62353,23.34961 -8.465292,10.4869 -16.388378,22.9757 -24.865065,35.02805 -16.940289,24.08609 -36.34662,46.83965 -67.420443,49.26806 31.259862,-1.94022 51.154619,-24.40622 68.64001,-48.39476 8.734884,-11.98355 16.806858,-24.25127 25.383608,-34.48093 8.58881,-10.24404 17.5375,-18.25595 27.92408,-21.95557 14.25192,-5.12622 25.15608,-14.22661 34.30578,-25.11944 9.11776,-10.85479 16.53955,-23.55306 23.78398,-35.7928 7.30742,-12.34615 14.361,-24.0913 22.91745,-33.56509 8.49416,-9.40484 18.24938,-16.31475 30.86854,-19.07796 z"
     id="path4207-6"
     inkscape:path-effect="#path-effect4209-3"
     inkscape:original-d="M 249.10231,466.65894 C 195.70529,478.89173 192.90825,561.23746 137.37714,581.73124 94.55355,597.53529 78.281819,683.59993 15.948782,687.96973"
     inkscape:connector-curvature="0"
     sodipodi:nodetypes="csc" />
  <path
     style="opacity:1;fill:#000000;fill-opacity:1;fill-rule:nonzero;stroke:none;stroke-width:6;stroke-miterlimit:4;stroke-dasharray:none;stroke-opacity:1"
     d="m 266.1162,484.00468 c -4.72605,35.35329 -21.59832,64.34622 -42.07039,84.6583 -20.49585,20.33568 -44.40999,31.78899 -63.00368,32.29315 -14.93585,0.32914 -26.1004,7.15834 -35.3652,17.04027 -9.23001,9.84481 -16.7142,22.87252 -24.25628,35.85323 -7.564581,13.01943 -15.247116,26.10644 -24.907247,36.25128 -9.647548,10.13162 -21.314003,17.37716 -36.879183,18.59357 15.601695,-0.96836 27.477219,-7.99693 37.417693,-18.07155 9.927473,-10.06144 17.877671,-23.11349 25.659397,-36.00898 7.80444,-12.93312 15.38,-25.59878 24.59276,-35.06355 9.17883,-9.42991 19.83737,-15.52896 33.77895,-15.59455 19.66833,-0.0187 44.69134,-11.53936 66.10443,-32.07105 21.43715,-20.55476 39.44564,-50.31603 44.87013,-87.04344 z"
     id="path4207-6-5"
     inkscape:path-effect="#path-effect4209-3-7"
     inkscape:original-d="m 269.08689,484.42302 c -10.15037,72.07996 -69.76221,117.51137 -108.02432,118.03297 -57.75281,0.7873 -59.09532,101.86869 -121.42835,106.23849"
     inkscape:connector-curvature="0"
     sodipodi:nodetypes="csc" />
  <path
     style="fill:#000000;fill-opacity:1;fill-rule:nonzero;stroke:none;stroke-width:6;stroke-miterlimit:4;stroke-dasharray:none;stroke-opacity:1"
     d="m 219.12019,349.59794 c 0.15129,-4.96311 -1.24954,-11.06387 -3.20403,-17.41223 -1.97867,-6.42691 -4.6687,-13.54082 -7.32728,-20.57767 -5.33044,-14.10883 -10.73724,-28.41535 -10.83013,-38.08256 -0.91235,9.79325 3.5875,24.5647 7.99021,39.04945 2.20744,7.26239 4.35946,14.35822 5.81538,20.76461 1.47005,6.46858 2.14339,11.89455 1.57471,15.78294 z"
     id="path4189"
     inkscape:path-effect="#path-effect4191"
     inkscape:original-d="m 216.12962,349.36021 c 1.41086,-17.74809 -19.18244,-56.35694 -18.37087,-75.83473"
     inkscape:connector-curvature="0"
     sodipodi:nodetypes="cc" />
  <path
     style="fill:#000000;fill-opacity:1;fill-rule:nonzero;stroke:none;stroke-width:6;stroke-miterlimit:4;stroke-dasharray:none;stroke-opacity:1"
     d="m 260.92673,294.58428 c -3.05232,-4.86296 -4.21307,-9.38891 -4.31816,-13.90807 -0.10687,-4.59584 0.87457,-9.13012 2.12355,-13.98964 2.50813,-9.75855 5.72899,-19.67272 1.8077,-31.31253 2.89237,11.68541 -1.26313,21.13388 -4.67192,30.42022 -1.71172,4.66313 -3.34919,9.55005 -3.76067,14.75221 -0.41734,5.27627 0.42064,10.90045 3.60466,17.00521 z"
     id="path4193"
     inkscape:path-effect="#path-effect4195"
     inkscape:original-d="m 258.31931,296.06798 c -12.47922,-21.93063 9.02092,-37.37823 2.22051,-60.69394"
     inkscape:connector-curvature="0" />
  <path
     style="fill:#000000;fill-opacity:1;fill-rule:nonzero;stroke:none;stroke-width:6;stroke-miterlimit:4;stroke-dasharray:none;stroke-opacity:1"
     d="m 300.47498,245.07713 c -1.49185,-5.48013 -3.82567,-9.69619 -6.82379,-12.94565 -2.98648,-3.23684 -6.54,-5.41553 -10.40271,-6.97613 -7.58434,-3.0642 -16.92425,-3.93029 -26.40951,-5.32488 9.54425,2.42496 18.29706,4.22468 25.12098,8.03406 3.3578,1.87446 6.1126,4.1689 8.219,7.12212 2.09295,2.93434 3.61933,6.62273 4.44271,11.40906 z"
     id="path4201"
     inkscape:path-effect="#path-effect4203"
     inkscape:original-d="M 297.54832,245.73642 C 292.9212,225.19601 275.89428,223.64154 256.83897,219.83047"
     inkscape:connector-curvature="0" />
  <path
     style="fill:#000000;fill-opacity:1;fill-rule:nonzero;stroke:none;stroke-width:6;stroke-miterlimit:4;stroke-dasharray:none;stroke-opacity:1"
     d="m 324.9346,214.64928 2.06147,-2.17953 c -6.52183,-5.48467 -11.04624,-11.16024 -13.60636,-17.74002 -2.583,-6.63856 -3.22641,-14.33843 -1.77817,-23.75047 -2.41423,9.14459 -2.88259,17.13933 -1.07614,24.63758 1.81971,7.55328 5.90359,14.43445 12.33773,21.21197 l 2.06147,-2.17953 z"
     id="path4205"
     inkscape:path-effect="#path-effect4207"
     inkscape:original-d="M 324.9346,214.64928 C 311.97148,202.38831 307.74661,189.53093 311.61154,170.97926"
     inkscape:connector-curvature="0" />
  <path
     style="fill:#000000;fill-opacity:1;fill-rule:nonzero;stroke:none;stroke-width:6;stroke-miterlimit:4;stroke-dasharray:none;stroke-opacity:1"
     d="m 372.28303,176.29498 c -1.39807,-5.54069 -3.50183,-9.72591 -6.25301,-12.88556 -2.74734,-3.15524 -6.01486,-5.14365 -9.61351,-6.49234 -6.97666,-2.61469 -15.89553,-3.00892 -25.56055,-4.44207 9.80628,2.4787 18.07253,3.79252 24.32698,7.17672 3.04794,1.6492 5.46124,3.71965 7.29083,6.50312 1.82104,2.77044 3.16804,6.40848 3.9328,11.35141 z"
     id="path4209"
     inkscape:path-effect="#path-effect4211"
     inkscape:original-d="m 369.3448,176.90062 c -4.32453,-20.9803 -18.96606,-20.52106 -38.48884,-24.42561"
     inkscape:connector-curvature="0" />
  <path
     style="fill:#000000;fill-opacity:1;fill-rule:nonzero;stroke:none;stroke-width:6;stroke-miterlimit:4;stroke-dasharray:none;stroke-opacity:1"
     d="m 424.11737,133.23059 2.17089,-2.07056 c -6.79994,-6.41291 -10.00759,-12.31078 -11.13698,-18.81965 -1.1587,-6.67775 -0.12714,-13.930747 1.5644,-22.77981 -2.61444,8.419498 -4.75881,15.82896 -4.55031,23.07029 0.2136,7.41818 2.88937,14.71343 9.78111,22.67029 l 2.17089,-2.07056 z"
     id="path4213"
     inkscape:path-effect="#path-effect4215"
     inkscape:original-d="m 424.11737,133.23059 c -13.70333,-14.36735 -11.72023,-26.3959 -7.40169,-43.67002"
     inkscape:connector-curvature="0" />
  <path
     style="fill:#000000;fill-opacity:1;fill-rule:nonzero;stroke:none;stroke-width:6;stroke-miterlimit:4;stroke-dasharray:none;stroke-opacity:1"
     d="m 475.92927,94.00159 2.90072,-0.765403 c -2.29273,-6.724632 -2.79116,-13.5307 -2.33627,-20.53098 0.4557,-7.012886 1.84472,-13.947394 3.1364,-20.893307 -2.23484,6.59983 -4.63974,13.443276 -6.10933,20.483533 -1.47348,7.058921 -2.0631,14.560592 -0.49224,22.47156 l 2.90072,-0.765403 z"
     id="path4217"
     inkscape:path-effect="#path-effect4219"
     inkscape:original-d="m 475.92927,94.00159 c -3.85988,-14.62813 0.16755,-28.64536 3.70085,-42.18969"
     inkscape:connector-curvature="0" />
  <path
     style="fill:#000000;fill-opacity:1;fill-rule:nonzero;stroke:none;stroke-width:6;stroke-miterlimit:4;stroke-dasharray:none;stroke-opacity:1"
     d="m 553.64711,56.25292 2.03038,-2.208521 C 542.29405,43.114958 532.71675,36.922345 517.37879,33.30765 c 14.54679,5.466079 22.65017,13.157378 34.23794,25.153791 l 2.03038,-2.208521 z"
     id="path4225"
     inkscape:path-effect="#path-effect4227"
     inkscape:original-d="M 553.64711,56.25292 C 541.17495,44.78679 532.30772,37.85124 517.37879,33.30765"
     inkscape:connector-curvature="0" />
  <path
     style="fill:#000000;fill-opacity:1;fill-rule:nonzero;stroke:none;stroke-width:6;stroke-miterlimit:4;stroke-dasharray:none;stroke-opacity:1"
     d="m 609.90003,45.15037 2.92942,-0.646922 C 610.17701,34.817352 606.67506,26.826441 601.95802,19.671398 597.25695,12.540569 591.38183,6.2907069 583.99408,0 c 6.72647,7.0418719 11.69654,13.824687 15.36819,21.172292 3.65727,7.318816 6.04657,15.240852 7.60834,24.625 l 2.92942,-0.646922 z"
     id="path4229"
     inkscape:path-effect="#path-effect4231"
     inkscape:original-d="M 609.90003,45.15037 C 605.68837,26.07895 598.10732,13.32918 583.99408,0"
     inkscape:connector-curvature="0" />
  <path
     style="fill:#000000;fill-opacity:1;fill-rule:nonzero;stroke:none;stroke-width:6;stroke-miterlimit:4;stroke-dasharray:none;stroke-opacity:1"
     d="m 642.95736,60.49963 c 4.55397,-10.763852 8.25443,-18.492697 13.5902,-24.07395 5.36255,-5.609284 12.6022,-9.277434 24.40878,-11.2599 -11.81196,0.974917 -19.86246,3.685006 -26.43937,9.051565 -6.5873,5.375039 -11.45058,13.221105 -16.98035,23.710225 z"
     id="path4233"
     inkscape:path-effect="#path-effect4235"
     inkscape:original-d="m 640.24699,59.2136 c 10.0905,-21.26625 17.10045,-31.09671 40.70935,-34.04782"
     inkscape:connector-curvature="0" />
  <path
     style="fill:#000000;fill-opacity:1;fill-rule:nonzero;stroke:none;stroke-width:6;stroke-miterlimit:4;stroke-dasharray:none;stroke-opacity:1"
     d="m 673.86402,84.38761 c 12.11889,1.246781 20.03816,-2.309417 25.50118,-7.874221 5.30387,-5.402693 8.3829,-12.791503 11.19794,-19.520299 -3.82176,6.5068 -7.62335,12.982428 -13.19768,17.284001 -5.39776,4.165309 -12.30911,6.169395 -22.63986,4.172699 z"
     id="path4237"
     inkscape:path-effect="#path-effect4239"
     inkscape:original-d="M 674.29481,81.4187 C 696.74854,84.67671 703.93968,70.24 710.56314,56.99309"
     inkscape:connector-curvature="0" />
  <path
     style="fill:#000000;fill-opacity:1;fill-rule:nonzero;stroke:none;stroke-width:6;stroke-miterlimit:4;stroke-dasharray:none;stroke-opacity:1"
     d="m 698.91184,110.88558 c 8.43483,-3.58282 15.06036,-5.21921 21.83325,-5.49989 6.8568,-0.28415 13.88803,0.8122 23.0359,2.67912 -8.79946,-2.80946 -15.80305,-4.9497 -22.95106,-5.67104 -7.22996,-0.72961 -14.57889,-0.0123 -23.96087,2.85027 z"
     id="path4241"
     inkscape:path-effect="#path-effect4243"
     inkscape:original-d="m 697.89045,108.06481 c 17.81806,-6.45182 27.94392,-4.68172 45.89054,0"
     inkscape:connector-curvature="0" />
  <path
     style="fill:#000000;fill-opacity:1;fill-rule:nonzero;stroke:none;stroke-width:6;stroke-miterlimit:4;stroke-dasharray:none;stroke-opacity:1"
     d="m 721.17044,151.76415 c 10.73399,-1.37602 21.86967,-5.31909 32.31846,-9.35671 10.5154,-4.06336 20.6584,-8.35869 29.61089,-10.65719 -9.20466,1.32978 -19.75428,4.70383 -30.56491,7.81205 -10.8823,3.12883 -21.76142,5.90185 -31.85428,6.22187 z"
     id="path4245"
     inkscape:path-effect="#path-effect4247"
     inkscape:original-d="m 720.92552,148.77416 c 20.8327,-1.70651 44.0062,-13.39029 62.17427,-17.02391"
     inkscape:connector-curvature="0" />
  <path
     style="fill:#000000;fill-opacity:1;fill-rule:nonzero;stroke:none;stroke-width:6;stroke-miterlimit:4;stroke-dasharray:none;stroke-opacity:1"
     d="m 732.02836,193.88026 c 10.4578,-3.03303 17.83117,-3.66812 24.56113,-2.19125 6.88176,1.51018 13.21884,5.2456 21.36631,11.11756 -7.38333,-6.54118 -13.42322,-11.37848 -20.51501,-13.99424 -7.22649,-2.66544 -15.43053,-2.99446 -26.81895,-0.76489 z"
     id="path4249"
     inkscape:path-effect="#path-effect4251"
     inkscape:original-d="m 731.3251,190.96385 c 21.85883,-5.27105 31.10438,-0.57834 46.6307,11.84272"
     inkscape:connector-curvature="0" />
  <path
     style="fill:#000000;fill-opacity:1;fill-rule:nonzero;stroke:none;stroke-width:6;stroke-miterlimit:4;stroke-dasharray:none;stroke-opacity:1"
     d="m 710.92913,238.36023 c 4.70836,7.10468 9.33322,10.42195 14.48696,11.99995 4.88755,1.49649 10.42791,1.44111 16.97436,2.03777 -6.66997,-1.62804 -11.64297,-2.52355 -15.82827,-4.81022 -3.96401,-2.16577 -7.13871,-5.56447 -10.44367,-12.2392 z"
     id="path4253"
     inkscape:path-effect="#path-effect4255"
     inkscape:original-d="m 713.52382,236.85438 c 8.01126,13.80397 15.60737,13.3337 28.86663,15.54357"
     inkscape:connector-curvature="0" />
  <path
     style="fill:#000000;fill-opacity:1;fill-rule:nonzero;stroke:none;stroke-width:6;stroke-miterlimit:4;stroke-dasharray:none;stroke-opacity:1"
     d="m 682.12441,277.57238 c 5.74381,-1.07922 10.63203,-0.89243 14.94425,0.25278 4.33264,1.15064 8.18741,3.29643 11.78251,6.23082 7.27788,5.94036 13.07428,14.73556 19.47605,23.85472 -5.43114,-9.45536 -10.56549,-19.13273 -17.45642,-26.07307 -3.49115,-3.51618 -7.52262,-6.43119 -12.4088,-8.28782 -4.90212,-1.86268 -10.5579,-2.61884 -17.19339,-1.91609 z"
     id="path4257"
     inkscape:path-effect="#path-effect4259"
     inkscape:original-d="m 681.69651,274.60305 c 24.76213,-3.56838 34.79957,14.71585 46.63071,33.30765"
     inkscape:connector-curvature="0" />
  <path
     style="fill:#000000;fill-opacity:1;fill-rule:nonzero;stroke:none;stroke-width:6;stroke-miterlimit:4;stroke-dasharray:none;stroke-opacity:1"
     d="m 647.1586,312.89709 c 4.12479,7.52301 8.15969,11.94114 12.77649,15.1565 4.49968,3.13379 9.60071,5.14208 15.84006,7.98356 -5.91576,-3.80308 -10.27866,-6.57005 -13.91138,-10.28143 -3.53352,-3.61003 -6.36303,-8.11378 -9.28397,-15.42971 z"
     id="path4261"
     inkscape:path-effect="#path-effect4263"
     inkscape:original-d="m 649.8692,311.61155 c 7.04437,14.85325 13.73427,17.7865 25.90595,24.4256"
     inkscape:connector-curvature="0" />
  <path
     style="fill:#000000;fill-opacity:1;fill-rule:nonzero;stroke:none;stroke-width:6;stroke-miterlimit:4;stroke-dasharray:none;stroke-opacity:1"
     d="m 619.62728,349.26685 c 8.54303,7.78753 12.92466,15.58706 17.82753,23.64101 4.89333,8.03829 9.96838,15.6716 19.80068,22.63407 -9.13266,-7.68641 -13.27317,-15.77861 -17.15806,-24.05411 -3.8831,-8.27172 -7.73752,-17.31664 -16.23921,-26.47527 z"
     id="path4265"
     inkscape:path-effect="#path-effect4267"
     inkscape:original-d="m 621.74275,347.1397 c 17.02207,16.92864 16.56267,33.75899 35.51274,48.40223"
     inkscape:connector-curvature="0"
     sodipodi:nodetypes="cc" />
  <path
     style="fill:#000000;fill-opacity:1;fill-rule:nonzero;stroke:none;stroke-width:6;stroke-miterlimit:4;stroke-dasharray:none;stroke-opacity:1"
     d="m 586.33118,389.04082 c 12.86041,5.43312 23.68267,13.67082 34.6714,23.23384 -9.41441,-10.81796 -19.28163,-20.99918 -31.9439,-28.57806 z"
     id="path4269"
     inkscape:path-effect="#path-effect4271"
     inkscape:original-d="m 587.69493,386.36871 c 12.75282,6.50856 23.1146,15.7129 33.30765,25.90595"
     inkscape:connector-curvature="0" />
  <path
     style="fill:#000000;fill-opacity:1;fill-rule:nonzero;stroke:none;stroke-width:6;stroke-miterlimit:4;stroke-dasharray:none;stroke-opacity:1"
     d="m 555.88765,418.0146 c 13.72384,13.2771 21.32391,30.12679 34.02779,45.33178 -10.18549,-15.18003 -17.42906,-34.83246 -29.62683,-49.40996 z"
     id="path4273"
     inkscape:path-effect="#path-effect4275"
     inkscape:original-d="m 558.08813,415.97551 c 12.93011,13.95344 20.41332,32.15222 31.82731,47.37087"
     inkscape:connector-curvature="0" />
  <path
     style="fill:#000000;fill-opacity:1;fill-rule:nonzero;stroke:none;stroke-width:6;stroke-miterlimit:4;stroke-dasharray:none;stroke-opacity:1"
     d="m 517.3553,455.71527 c 4.67508,4.51392 9.52936,7.34829 14.44159,9.50466 4.85879,2.13293 9.98635,3.68719 15.18869,5.52815 -4.89978,-2.80155 -9.45423,-5.1981 -13.73091,-8.1516 -4.24337,-2.9305 -8.00864,-6.27548 -11.41137,-10.86341 z"
     id="path4277"
     inkscape:path-effect="#path-effect4279"
     inkscape:original-d="m 519.5993,453.72417 c 8.0695,9.09443 17.27235,12.38836 27.38628,17.02391"
     inkscape:connector-curvature="0" />
  <path
     style="fill:#000000;fill-opacity:1;fill-rule:nonzero;stroke:none;stroke-width:6;stroke-miterlimit:4;stroke-dasharray:none;stroke-opacity:1"
     d="m 492.24906,470.41685 c 9.28939,4.53495 15.25224,11.13348 19.45546,19.28195 4.23567,8.21135 6.52654,17.69225 8.63494,27.67999 -1.09521,-9.98353 -2.43321,-19.99222 -5.8892,-28.91879 -3.4857,-9.00332 -9.23849,-17.19508 -19.31262,-23.30205 z"
     id="path4281"
     inkscape:path-effect="#path-effect4283"
     inkscape:original-d="m 493.69335,467.7874 c 19.35887,10.63336 23.44987,29.61484 26.64611,49.59139"
     inkscape:connector-curvature="0" />
  <path
     style="fill:#000000;fill-opacity:1;fill-rule:nonzero;stroke:none;stroke-width:6;stroke-miterlimit:4;stroke-dasharray:none;stroke-opacity:1"
     d="m 445.41214,500.68691 c 5.73864,6.73738 11.66055,10.52843 17.90053,13.09348 6.14437,2.52575 12.79782,3.93294 20.0183,5.81891 -7.06361,-2.88713 -13.1546,-5.17327 -18.66579,-8.49928 -5.43625,-3.28078 -10.11349,-7.46595 -14.4717,-14.03785 z"
     id="path4285"
     inkscape:path-effect="#path-effect4287"
     inkscape:original-d="m 447.80281,498.87454 c 10.08848,13.30757 21.23177,15.95929 35.52816,20.72476"
     inkscape:connector-curvature="0" />
  <path
     style="fill:#000000;fill-opacity:1;fill-rule:nonzero;stroke:none;stroke-width:6;stroke-miterlimit:4;stroke-dasharray:none;stroke-opacity:1"
     d="m 407.3175,516.38741 c 2.91222,5.87093 6.36483,9.84552 9.93726,12.87812 3.51495,2.9838 7.20481,5.09299 10.47778,7.15013 3.30576,2.07775 6.43134,4.23795 9.09384,7.43562 2.67598,3.21387 4.94469,7.54664 6.38663,13.95844 -0.94768,-6.48922 -2.76024,-11.1361 -5.18047,-14.84483 -2.43096,-3.72518 -5.41615,-6.41574 -8.54522,-8.98249 -3.17062,-2.60082 -6.23282,-4.88713 -9.13764,-7.98301 -2.84244,-3.02938 -5.44525,-6.75742 -7.55888,-12.07024 z"
     id="path4289"
     inkscape:path-effect="#path-effect4291"
     inkscape:original-d="m 410.05415,515.15828 c 10.04753,22.37069 28.38159,16.85417 33.15886,42.65144"
     inkscape:connector-curvature="0"
     sodipodi:nodetypes="cc" />
  <path
     style="fill:#000000;fill-opacity:1;fill-rule:nonzero;stroke:none;stroke-width:6;stroke-miterlimit:4;stroke-dasharray:none;stroke-opacity:1"
     d="m 373.82251,525.35707 c 7.34173,7.07112 10.35423,12.89406 11.87196,18.02165 1.31153,4.43097 1.78429,10.65972 2.89475,13.96924 -0.30148,-3.45408 0.62139,-9.38872 0.0482,-14.55129 -0.65886,-5.93466 -3.10335,-13.02254 -10.44731,-21.55344 z"
     id="path4293"
     inkscape:path-effect="#path-effect4295"
     inkscape:original-d="m 376.00633,523.30015 c 14.69733,15.60407 10.8674,25.81345 12.58289,34.04781"
     inkscape:connector-curvature="0" />
  <path
     style="fill:#000000;fill-opacity:1;fill-rule:nonzero;stroke:none;stroke-width:6;stroke-miterlimit:4;stroke-dasharray:none;stroke-opacity:1"
     d="m 322.6998,528.0946 c -0.42978,7.25617 -3.58859,15.33453 -7.49828,22.93689 -3.89232,7.56861 -8.29539,14.25426 -10.99168,18.89936 3.46171,-3.99038 8.75475,-10.20619 13.56894,-17.36843 4.76433,-7.08806 9.30284,-15.4465 10.87096,-23.69434 z"
     id="path4297"
     inkscape:path-effect="#path-effect4299"
     inkscape:original-d="m 325.67477,528.48134 c -2.0163,15.51039 -15.32104,32.84808 -21.46493,41.44951"
     inkscape:connector-curvature="0" />
  <path
     style="fill:#000000;fill-opacity:1;fill-rule:nonzero;stroke:none;stroke-width:6;stroke-miterlimit:4;stroke-dasharray:none;stroke-opacity:1"
     d="m 208.16315,398.31523 c -10.01975,-2.6804 -18.12496,-0.75898 -25.23219,2.89827 -6.98507,3.59439 -13.41451,9.09286 -20.09357,14.02184 7.41835,-4.21786 14.13891,-8.69498 21.29652,-11.27358 7.05551,-2.54183 14.0736,-3.05571 22.1981,0.0672 z"
     id="path4301"
     inkscape:path-effect="#path-effect4303"
     inkscape:original-d="m 207.24758,401.17211 c -18.12887,-5.80991 -30.30811,4.89688 -44.41019,14.06323"
     inkscape:connector-curvature="0" />
  <path
     style="fill:#000000;fill-opacity:1;fill-rule:nonzero;stroke:none;stroke-width:6;stroke-miterlimit:4;stroke-dasharray:none;stroke-opacity:1"
     d="m 207.27704,359.76867 c -9.03474,2.71977 -18.51394,2.07631 -28.20807,-0.23176 -9.68462,-2.30581 -19.13792,-6.15422 -28.0743,-9.43653 8.42748,4.15214 17.65741,8.99998 27.22596,12.31502 9.5651,3.31383 19.88555,5.25204 30.47783,3.18247 z"
     id="path4305"
     inkscape:path-effect="#path-effect4307"
     inkscape:original-d="m 207.98775,362.68327 c -19.61907,4.78402 -39.63111,-5.14204 -56.99308,-12.58289"
     inkscape:connector-curvature="0" />
</svg>
