<?xml version="1.0" encoding="UTF-8" standalone="no"?>
<!-- Created with Inkscape (http://www.inkscape.org/) -->

<svg
   xmlns:dc="http://purl.org/dc/elements/1.1/"
   xmlns:cc="http://creativecommons.org/ns#"
   xmlns:rdf="http://www.w3.org/1999/02/22-rdf-syntax-ns#"
   xmlns:svg="http://www.w3.org/2000/svg"
   xmlns="http://www.w3.org/2000/svg"
   xmlns:sodipodi="http://sodipodi.sourceforge.net/DTD/sodipodi-0.dtd"
   xmlns:inkscape="http://www.inkscape.org/namespaces/inkscape"
   id="svg3336"
   version="1.1"
   inkscape:version="0.91 r13725"
   width="783.09979"
   height="708.69446"
   viewBox="0 0 783.09979 708.69447"
   sodipodi:docname="bactismash_icon_white.svg">
  <metadata
     id="metadata3342">
    <rdf:RDF>
      <cc:Work
         rdf:about="">
        <dc:format>image/svg+xml</dc:format>
        <dc:type
           rdf:resource="http://purl.org/dc/dcmitype/StillImage" />
        <dc:title />
      </cc:Work>
    </rdf:RDF>
  </metadata>
  <defs
     id="defs3340">
    <inkscape:path-effect
       effect="powerstroke"
       id="path-effect4307"
       is_visible="true"
       offset_points="0,5.9268906"
       sort_points="true"
       interpolator_type="Linear"
       interpolator_beta="0.2"
       start_linecap_type="zerowidth"
       linejoin_type="round"
       miter_limit="4"
       end_linecap_type="zerowidth"
       cusp_linecap_type="round" />
    <inkscape:path-effect
       effect="powerstroke"
       id="path-effect4303"
       is_visible="true"
       offset_points="0.026733194,6.8624927"
       sort_points="true"
       interpolator_type="Linear"
       interpolator_beta="0.2"
       start_linecap_type="zerowidth"
       linejoin_type="round"
       miter_limit="4"
       end_linecap_type="zerowidth"
       cusp_linecap_type="round" />
    <inkscape:path-effect
       effect="powerstroke"
       id="path-effect4299"
       is_visible="true"
       offset_points="0,6.6369318"
       sort_points="true"
       interpolator_type="Linear"
       interpolator_beta="0.2"
       start_linecap_type="zerowidth"
       linejoin_type="round"
       miter_limit="4"
       end_linecap_type="zerowidth"
       cusp_linecap_type="round" />
    <inkscape:path-effect
       effect="powerstroke"
       id="path-effect4295"
       is_visible="true"
       offset_points="0,8.3410323"
       sort_points="true"
       interpolator_type="Linear"
       interpolator_beta="0.2"
       start_linecap_type="zerowidth"
       linejoin_type="round"
       miter_limit="4"
       end_linecap_type="zerowidth"
       cusp_linecap_type="round" />
    <inkscape:path-effect
       effect="powerstroke"
       id="path-effect4291"
       is_visible="true"
       offset_points="0,7.5060502"
       sort_points="true"
       interpolator_type="Linear"
       interpolator_beta="0.2"
       start_linecap_type="zerowidth"
       linejoin_type="round"
       miter_limit="4"
       end_linecap_type="zerowidth"
       cusp_linecap_type="round" />
    <inkscape:path-effect
       effect="powerstroke"
       id="path-effect4287"
       is_visible="true"
       offset_points="0,6.7721406"
       sort_points="true"
       interpolator_type="Linear"
       interpolator_beta="0.2"
       start_linecap_type="zerowidth"
       linejoin_type="round"
       miter_limit="4"
       end_linecap_type="zerowidth"
       cusp_linecap_type="round" />
    <inkscape:path-effect
       effect="powerstroke"
       id="path-effect4283"
       is_visible="true"
       offset_points="0,7.5228959"
       sort_points="true"
       interpolator_type="Linear"
       interpolator_beta="0.2"
       start_linecap_type="zerowidth"
       linejoin_type="round"
       miter_limit="4"
       end_linecap_type="zerowidth"
       cusp_linecap_type="round" />
    <inkscape:path-effect
       effect="powerstroke"
       id="path-effect4279"
       is_visible="true"
       offset_points="0,5.1209917"
       sort_points="true"
       interpolator_type="Linear"
       interpolator_beta="0.2"
       start_linecap_type="zerowidth"
       linejoin_type="round"
       miter_limit="4"
       end_linecap_type="zerowidth"
       cusp_linecap_type="round" />
    <inkscape:path-effect
       effect="powerstroke"
       id="path-effect4275"
       is_visible="true"
       offset_points="0,6.4293649"
       sort_points="true"
       interpolator_type="Linear"
       interpolator_beta="0.2"
       start_linecap_type="zerowidth"
       linejoin_type="round"
       miter_limit="4"
       end_linecap_type="zerowidth"
       cusp_linecap_type="round" />
    <inkscape:path-effect
       effect="powerstroke"
       id="path-effect4271"
       is_visible="true"
       offset_points="0,6.4919251"
       sort_points="true"
       interpolator_type="Linear"
       interpolator_beta="0.2"
       start_linecap_type="zerowidth"
       linejoin_type="round"
       miter_limit="4"
       end_linecap_type="zerowidth"
       cusp_linecap_type="round" />
    <inkscape:path-effect
       effect="powerstroke"
       id="path-effect4267"
       is_visible="true"
       offset_points="0,6.3997913"
       sort_points="true"
       interpolator_type="Linear"
       interpolator_beta="0.2"
       start_linecap_type="zerowidth"
       linejoin_type="round"
       miter_limit="4"
       end_linecap_type="zerowidth"
       cusp_linecap_type="round" />
    <inkscape:path-effect
       effect="powerstroke"
       id="path-effect4263"
       is_visible="true"
       offset_points="0.046333338,4.9701747"
       sort_points="true"
       interpolator_type="Linear"
       interpolator_beta="0.2"
       start_linecap_type="zerowidth"
       linejoin_type="round"
       miter_limit="4"
       end_linecap_type="zerowidth"
       cusp_linecap_type="round" />
    <inkscape:path-effect
       effect="powerstroke"
       id="path-effect4259"
       is_visible="true"
       offset_points="0,5.9111902"
       sort_points="true"
       interpolator_type="Linear"
       interpolator_beta="0.2"
       start_linecap_type="zerowidth"
       linejoin_type="round"
       miter_limit="4"
       end_linecap_type="zerowidth"
       cusp_linecap_type="round" />
    <inkscape:path-effect
       effect="powerstroke"
       id="path-effect4255"
       is_visible="true"
       offset_points="0.0070820068,7.5023641"
       sort_points="true"
       interpolator_type="Linear"
       interpolator_beta="0.2"
       start_linecap_type="zerowidth"
       linejoin_type="round"
       miter_limit="4"
       end_linecap_type="zerowidth"
       cusp_linecap_type="round" />
    <inkscape:path-effect
       effect="powerstroke"
       id="path-effect4251"
       is_visible="true"
       offset_points="0,7.5035322"
       sort_points="true"
       interpolator_type="Linear"
       interpolator_beta="0.2"
       start_linecap_type="zerowidth"
       linejoin_type="round"
       miter_limit="4"
       end_linecap_type="zerowidth"
       cusp_linecap_type="round" />
    <inkscape:path-effect
       effect="powerstroke"
       id="path-effect4247"
       is_visible="true"
       offset_points="0,8.1336792"
       sort_points="true"
       interpolator_type="Linear"
       interpolator_beta="0.2"
       start_linecap_type="zerowidth"
       linejoin_type="round"
       miter_limit="4"
       end_linecap_type="zerowidth"
       cusp_linecap_type="round" />
    <inkscape:path-effect
       effect="powerstroke"
       id="path-effect4243"
       is_visible="true"
       offset_points="0,7.1156561"
       sort_points="true"
       interpolator_type="Linear"
       interpolator_beta="0.2"
       start_linecap_type="zerowidth"
       linejoin_type="round"
       miter_limit="4"
       end_linecap_type="zerowidth"
       cusp_linecap_type="round" />
    <inkscape:path-effect
       effect="powerstroke"
       id="path-effect4239"
       is_visible="true"
       offset_points="0.082126769,6.233141"
       sort_points="true"
       interpolator_type="Linear"
       interpolator_beta="0.2"
       start_linecap_type="zerowidth"
       linejoin_type="round"
       miter_limit="4"
       end_linecap_type="zerowidth"
       cusp_linecap_type="round" />
    <inkscape:path-effect
       effect="powerstroke"
       id="path-effect4235"
       is_visible="true"
       offset_points="0.025731388,9.1185796"
       sort_points="true"
       interpolator_type="Linear"
       interpolator_beta="0.2"
       start_linecap_type="zerowidth"
       linejoin_type="round"
       miter_limit="4"
       end_linecap_type="zerowidth"
       cusp_linecap_type="round" />
    <inkscape:path-effect
       effect="powerstroke"
       id="path-effect4231"
       is_visible="true"
       offset_points="0,7.9445503"
       sort_points="true"
       interpolator_type="Linear"
       interpolator_beta="0.2"
       start_linecap_type="zerowidth"
       linejoin_type="round"
       miter_limit="4"
       end_linecap_type="zerowidth"
       cusp_linecap_type="round" />
    <inkscape:path-effect
       effect="powerstroke"
       id="path-effect4227"
       is_visible="true"
       offset_points="0,8.1144623"
       sort_points="true"
       interpolator_type="Linear"
       interpolator_beta="0.2"
       start_linecap_type="zerowidth"
       linejoin_type="round"
       miter_limit="4"
       end_linecap_type="zerowidth"
       cusp_linecap_type="round" />
    <inkscape:path-effect
       effect="powerstroke"
       id="path-effect4219"
       is_visible="true"
       offset_points="0.0048771011,5.1564751"
       sort_points="true"
       interpolator_type="Linear"
       interpolator_beta="0.2"
       start_linecap_type="zerowidth"
       linejoin_type="round"
       miter_limit="4"
       end_linecap_type="zerowidth"
       cusp_linecap_type="round" />
    <inkscape:path-effect
       effect="powerstroke"
       id="path-effect4215"
       is_visible="true"
       offset_points="0.016453747,6.3754177"
       sort_points="true"
       interpolator_type="Linear"
       interpolator_beta="0.2"
       start_linecap_type="zerowidth"
       linejoin_type="round"
       miter_limit="4"
       end_linecap_type="zerowidth"
       cusp_linecap_type="round" />
    <inkscape:path-effect
       effect="powerstroke"
       id="path-effect4211"
       is_visible="true"
       offset_points="0.0061579568,6.0324861"
       sort_points="true"
       interpolator_type="Linear"
       interpolator_beta="0.2"
       start_linecap_type="zerowidth"
       linejoin_type="round"
       miter_limit="4"
       end_linecap_type="zerowidth"
       cusp_linecap_type="round" />
    <inkscape:path-effect
       effect="powerstroke"
       id="path-effect4207"
       is_visible="true"
       offset_points="0,6.6479273"
       sort_points="true"
       interpolator_type="Linear"
       interpolator_beta="0.2"
       start_linecap_type="zerowidth"
       linejoin_type="round"
       miter_limit="4"
       end_linecap_type="zerowidth"
       cusp_linecap_type="round" />
    <inkscape:path-effect
       effect="powerstroke"
       id="path-effect4203"
       is_visible="true"
       offset_points="0.0066023994,7.9428586"
       sort_points="true"
       interpolator_type="Linear"
       interpolator_beta="0.2"
       start_linecap_type="zerowidth"
       linejoin_type="round"
       miter_limit="4"
       end_linecap_type="zerowidth"
       cusp_linecap_type="round" />
    <inkscape:path-effect
       effect="powerstroke"
       id="path-effect4195"
       is_visible="true"
       offset_points="0.060960206,6.0098933"
       sort_points="true"
       interpolator_type="Linear"
       interpolator_beta="0.2"
       start_linecap_type="zerowidth"
       linejoin_type="round"
       miter_limit="4"
       end_linecap_type="zerowidth"
       cusp_linecap_type="round" />
    <inkscape:path-effect
       effect="powerstroke"
       id="path-effect4191"
       is_visible="true"
       offset_points="0.076620772,6.7303742"
       sort_points="true"
       interpolator_type="Linear"
       interpolator_beta="0.2"
       start_linecap_type="zerowidth"
       linejoin_type="round"
       miter_limit="4"
       end_linecap_type="zerowidth"
       cusp_linecap_type="round" />
    <inkscape:path-effect
       effect="powerstroke"
       id="path-effect4209"
       is_visible="true"
       offset_points="0.041439278,8.8198271"
       sort_points="true"
       interpolator_type="Linear"
       interpolator_beta="0.2"
       start_linecap_type="zerowidth"
       linejoin_type="round"
       miter_limit="4"
       end_linecap_type="zerowidth"
       cusp_linecap_type="round" />
    <inkscape:path-effect
       effect="powerstroke"
       id="path-effect4166"
       is_visible="true"
       offset_points="0.31428378,1.323707"
       sort_points="true"
       interpolator_type="Linear"
       interpolator_beta="0.2"
       start_linecap_type="zerowidth"
       linejoin_type="round"
       miter_limit="4"
       end_linecap_type="zerowidth"
       cusp_linecap_type="round" />
    <inkscape:path-effect
       effect="powerstroke"
       id="path-effect4162"
       is_visible="true"
       offset_points="0,3"
       sort_points="true"
       interpolator_type="Linear"
       interpolator_beta="0.2"
       start_linecap_type="zerowidth"
       linejoin_type="round"
       miter_limit="4"
       end_linecap_type="zerowidth"
       cusp_linecap_type="round" />
    <inkscape:path-effect
       effect="powerstroke"
       id="path-effect4158"
       is_visible="true"
       offset_points="0,3"
       sort_points="true"
       interpolator_type="Linear"
       interpolator_beta="0.2"
       start_linecap_type="zerowidth"
       linejoin_type="round"
       miter_limit="4"
       end_linecap_type="zerowidth"
       cusp_linecap_type="round" />
    <inkscape:path-effect
       effect="powerstroke"
       id="path-effect4166-3"
       is_visible="true"
       offset_points="0.31428378,1.323707"
       sort_points="true"
       interpolator_type="Linear"
       interpolator_beta="0.2"
       start_linecap_type="zerowidth"
       linejoin_type="round"
       miter_limit="4"
       end_linecap_type="zerowidth"
       cusp_linecap_type="round" />
    <inkscape:path-effect
       effect="powerstroke"
       id="path-effect4209-3"
       is_visible="true"
       offset_points="0.019449617,10.034285"
       sort_points="true"
       interpolator_type="Linear"
       interpolator_beta="0.2"
       start_linecap_type="zerowidth"
       linejoin_type="round"
       miter_limit="4"
       end_linecap_type="zerowidth"
       cusp_linecap_type="round" />
    <inkscape:path-effect
       effect="powerstroke"
       id="path-effect4209-3-7"
       is_visible="true"
       offset_points="0.0126889,8.2789289"
       sort_points="true"
       interpolator_type="Linear"
       interpolator_beta="0.2"
       start_linecap_type="zerowidth"
       linejoin_type="round"
       miter_limit="4"
       end_linecap_type="zerowidth"
       cusp_linecap_type="round" />
  </defs>
  <sodipodi:namedview
     pagecolor="#ffffff"
     bordercolor="#666666"
     borderopacity="1"
     objecttolerance="10"
     gridtolerance="10"
     guidetolerance="10"
     inkscape:pageopacity="0"
     inkscape:pageshadow="2"
     inkscape:window-width="1920"
     inkscape:window-height="1151"
     id="namedview3338"
     showgrid="false"
     inkscape:zoom="0.95533032"
     inkscape:cx="306.81377"
     inkscape:cy="330.4927"
     inkscape:window-x="0"
     inkscape:window-y="25"
     inkscape:window-maximized="1"
     inkscape:current-layer="svg3336"
     fit-margin-top="0"
     fit-margin-left="0"
     fit-margin-right="0"
     fit-margin-bottom="0" />
  <path
     style="opacity:1;fill:#810e15;fill-opacity:1;fill-rule:nonzero;stroke:#ffffff;stroke-width:10;stroke-miterlimit:4;stroke-dasharray:none;stroke-opacity:1"
     d="M 211.71039,412.42345 C 204.88422,400.94231 200.66838,385.90333 204.2869,373.04566 219.98152,317.27803 440.66288,66.29527 593.61628,47.3709 c 58.90561,-7.28818 112.5438,62.35235 133.43196,117.91019 7.67724,20.41973 6.91089,49.31637 -8.34325,64.91178 -79.20149,80.9734 -187.27497,272.50489 -365.64393,297.54831 -53.24215,7.47532 -110.2749,-63.05041 -141.35067,-115.31773 z"
     id="path4186"
     inkscape:connector-curvature="0"
     sodipodi:nodetypes="assassa" />
  <path
     style="opacity:1;fill:#ffffff;fill-opacity:1;fill-rule:nonzero;stroke:none;stroke-width:6;stroke-miterlimit:4;stroke-dasharray:none;stroke-opacity:1"
     d="m 228.37257,432.42345 c -1.46658,-2.98533 -3.5804,-5.81054 -6.12963,-8.40967 -10.24211,1.80387 -21.74202,7.63462 -32.96942,14.934 -13.70832,8.91232 -28.37319,20.90216 -42.11855,33.4849 -13.78271,12.61694 -26.82367,25.99817 -37.2956,37.81918 -5.22633,5.89963 -9.863832,11.46812 -13.60589,16.33324 -3.73772,4.85949 -6.685825,9.15061 -8.551517,12.53635 -15.55033,26.67352 -22.229602,58.33009 -31.935026,81.67765 -4.991257,12.00707 -10.96334,22.54558 -19.592679,30.46564 C 27.527564,659.20072 16.059115,664.65063 0,666.15295 c 16.086388,-0.75179 28.107641,-5.47902 37.63055,-13.17734 9.537734,-7.7103 16.404077,-18.26647 22.243132,-30.32891 12.013315,-24.81735 18.843081,-53.20419 35.499285,-78.80597 1.885439,-2.69675 4.798843,-6.33734 8.720393,-10.8283 3.90022,-4.46655 8.60731,-9.55598 14.01338,-15.09738 10.77915,-11.04899 24.04797,-23.59775 37.96848,-35.33644 13.95097,-11.76437 28.38972,-22.57274 41.4855,-30.22413 11.11024,-6.49131 20.44459,-10.23379 27.23143,-10.88745 0.836,-3.07494 1.97223,-6.1572 3.58042,-9.04358 z"
     id="path4207"
     inkscape:path-effect="#path-effect4209"
     inkscape:original-d="M 228.37257,432.42345 C 191.22591,431.46313 106.44436,517.2504 91.53747,541.48108 59.389372,593.73679 64.28563,661.64627 0,666.15295"
     inkscape:connector-curvature="0"
     sodipodi:nodetypes="csc" />
  <path
     style="opacity:1;fill:#ffffff;fill-opacity:1;fill-rule:nonzero;stroke:none;stroke-width:6;stroke-miterlimit:4;stroke-dasharray:none;stroke-opacity:1"
     d="m 248.57893,462.99529 c -1.78641,-3.02399 -3.74376,-5.97101 -5.87565,-8.83421 -14.15255,4.54958 -24.61992,13.49748 -32.97245,23.92268 -8.92163,11.13552 -15.96734,24.67338 -22.59951,37.49767 -6.7922,13.13372 -13.29121,25.81278 -21.43194,36.73129 -8.03292,10.7739 -17.49393,19.57488 -30.07636,24.66546 -11.79158,4.799 -21.15375,14.25941 -29.45502,25.00685 -8.32863,10.78284 -16.083022,23.5542 -24.248624,35.67849 -8.21413,12.19634 -16.988798,23.97051 -27.525143,33.10058 -10.513617,9.11037 -22.908631,15.69366 -38.445451,17.20563 15.632522,-0.67213 28.640716,-6.48719 40.050276,-15.23603 11.383372,-8.72875 21.041828,-20.28019 30.039573,-32.12056 9.03627,-11.89106 17.296319,-23.91731 26.000049,-33.83049 8.75222,-9.96842 17.46183,-17.19802 27.09257,-20.29834 15.18166,-5.15028 26.83197,-14.79772 36.51067,-26.29069 9.56835,-11.36191 17.39518,-24.77731 24.78341,-37.24427 7.55719,-12.7521 14.55267,-24.32466 22.81553,-33.38001 7.50361,-8.22327 15.5137,-13.74399 25.09691,-16.14689 -0.12951,-3.44881 -0.0506,-6.92716 0.24116,-10.42716 z"
     id="path4207-6"
     inkscape:path-effect="#path-effect4209-3"
     inkscape:original-d="M 248.57893,462.99529 C 195.18191,475.22808 192.90825,561.23746 137.37714,581.73124 94.55355,597.53529 78.281819,683.59993 15.948782,687.96973"
     inkscape:connector-curvature="0"
     sodipodi:nodetypes="csc" />
  <path
     style="opacity:1;fill:#ffffff;fill-opacity:1;fill-rule:nonzero;stroke:none;stroke-width:6;stroke-miterlimit:4;stroke-dasharray:none;stroke-opacity:1"
     d="m 269.08689,484.42302 c -2.86155,0.52981 -5.72378,1.00508 -8.58562,1.42629 -4.57746,32.97757 -20.13167,60.36343 -39.24722,79.95066 -19.68056,20.16619 -42.60974,31.55029 -60.24827,32.49051 -7.85425,0.28134 -14.72616,2.27214 -20.8167,5.5174 -6.06709,3.23276 -11.29668,7.67589 -15.95808,12.80759 -9.24624,10.17911 -16.64743,23.53538 -23.95728,36.55497 -7.371432,13.12926 -14.816478,26.24795 -24.238855,36.46659 -9.388481,10.18187 -20.866675,17.621 -36.400645,19.05745 15.635324,-0.74747 27.694273,-7.58415 37.89623,-17.60766 10.164848,-9.98705 18.353277,-23.0086 26.32778,-35.79366 8.03778,-12.88651 15.69414,-25.2391 24.89177,-34.36183 4.56138,-4.52423 9.39579,-8.1403 14.70132,-10.60374 5.28059,-2.45185 11.08411,-3.78914 17.66804,-3.70609 20.62294,0.40868 46.63202,-11.16384 68.85985,-31.87369 21.73112,-20.24707 40.34427,-49.67275 46.87303,-86.2892 -2.5727,-1.39085 -5.16139,-2.73612 -7.76535,-4.03559 z"
     id="path4207-6-5"
     inkscape:path-effect="#path-effect4209-3-7"
     inkscape:original-d="m 269.08689,484.42302 c -10.15037,72.07996 -69.76221,117.51137 -108.02432,118.03297 -57.75281,0.7873 -59.09532,101.86869 -121.42835,106.23849"
     inkscape:connector-curvature="0"
     sodipodi:nodetypes="csc" />
  <path
     style="fill:#ffffff;fill-opacity:1;fill-rule:nonzero;stroke:none;stroke-width:6;stroke-miterlimit:4;stroke-dasharray:none;stroke-opacity:1"
     d="m 220.31665,346.21993 c 2.35085,-1.18529 4.56117,-2.99079 6.57296,-5.13253 -1.06615,-4.9788 -3.31067,-10.41474 -5.78389,-15.62593 -2.53556,-5.34253 -5.53444,-10.8951 -8.50461,-16.40132 -3.50886,-6.50486 -7.01862,-13.01505 -9.73928,-19.04507 -2.70592,-5.9973 -4.70534,-11.67051 -5.10308,-16.4896 -0.81852,4.89652 0.005,11.00763 1.65831,17.67015 1.64935,6.64756 4.10223,13.77693 6.5067,20.78691 2.03627,5.93654 4.02916,11.76641 5.46387,17.07203 1.45562,5.38291 2.2671,10.00329 2.12868,13.54479 2.33238,0.94871 4.69736,2.10121 6.80034,3.62057 z"
     id="path4189"
     inkscape:path-effect="#path-effect4191"
     inkscape:original-d="m 220.31665,346.21993 c 1.41086,-17.74809 -23.36947,-53.21666 -22.5579,-72.69445"
     inkscape:connector-curvature="0"
     sodipodi:nodetypes="cc" />
  <path
     style="fill:#ffffff;fill-opacity:1;fill-rule:nonzero;stroke:none;stroke-width:6;stroke-miterlimit:4;stroke-dasharray:none;stroke-opacity:1"
     d="m 258.31931,296.06798 c 0.98295,-2.33368 2.21191,-4.40271 3.65422,-6.19476 -1.9168,-3.50993 -2.77122,-6.95172 -2.91773,-10.65895 -0.15024,-3.80156 0.44531,-7.67415 1.29941,-12.02206 0.95183,-4.84547 2.16409,-9.99285 2.53059,-15.31365 0.37013,-5.37356 -0.12391,-10.79934 -2.34598,-16.50452 1.18493,5.96232 0.53993,11.19159 -0.81182,15.96697 -1.36374,4.81774 -3.46838,9.27616 -5.48318,13.94761 -1.73445,4.02142 -3.4989,8.41529 -4.37271,13.1532 -0.89148,4.83366 -0.88051,10.12925 0.95798,15.93759 2.48922,0.79857 4.98249,1.34177 7.48922,1.68857 z"
     id="path4193"
     inkscape:path-effect="#path-effect4195"
     inkscape:original-d="m 258.31931,296.06798 c -12.47922,-21.93063 9.02092,-37.37823 2.22051,-60.69394"
     inkscape:connector-curvature="0"
     sodipodi:nodetypes="cc" />
  <path
     style="fill:#ffffff;fill-opacity:1;fill-rule:nonzero;stroke:none;stroke-width:6;stroke-miterlimit:4;stroke-dasharray:none;stroke-opacity:1"
     d="m 297.54832,245.73642 c 2.55236,-0.71747 5.0982,-1.46045 7.63707,-2.22942 -2.07611,-5.90537 -5.07059,-10.46742 -8.79015,-13.88889 -3.6928,-3.39685 -7.83855,-5.43149 -12.07391,-6.71845 -8.16523,-2.48108 -18.09846,-2.49517 -27.48236,-3.06919 9.50051,3.29345 17.95019,5.84932 24.04813,10.28975 2.9084,2.11785 4.96223,4.45343 6.34555,7.13557 1.34779,2.61327 2.19133,5.822 2.49206,9.90131 2.60213,-0.50104 5.21015,-0.97445 7.82361,-1.42068 z"
     id="path4201"
     inkscape:path-effect="#path-effect4203"
     inkscape:original-d="M 297.54832,245.73642 C 292.9212,225.19601 275.89428,223.64154 256.83897,219.83047"
     inkscape:connector-curvature="0"
     sodipodi:nodetypes="cc" />
  <path
     style="fill:#ffffff;fill-opacity:1;fill-rule:nonzero;stroke:none;stroke-width:6;stroke-miterlimit:4;stroke-dasharray:none;stroke-opacity:1"
     d="m 329.50277,209.8195 c -6.5604,-4.70324 -11.38214,-9.63661 -14.37768,-15.62912 -3.0611,-6.12366 -4.36851,-13.62871 -3.51355,-23.21112 -2.99815,8.99281 -4.14924,17.14518 -2.81153,25.17693 1.35674,8.14599 5.1984,15.75849 11.56642,23.32287 z"
     id="path4205"
     inkscape:path-effect="#path-effect4207"
     inkscape:original-d="M 324.9346,214.64928 C 311.97148,202.38831 307.74661,189.53093 311.61154,170.97926"
     inkscape:connector-curvature="0"
     sodipodi:nodetypes="cc" />
  <path
     style="fill:#ffffff;fill-opacity:1;fill-rule:nonzero;stroke:none;stroke-width:6;stroke-miterlimit:4;stroke-dasharray:none;stroke-opacity:1"
     d="m 369.3448,176.90062 c 1.94278,-0.53514 3.88184,-1.08581 5.81682,-1.6524 -1.73943,-5.70506 -4.22827,-10.08638 -7.43009,-13.36519 -3.19697,-3.27385 -6.84528,-5.18344 -10.68388,-6.36512 -7.28092,-2.24136 -16.6642,-2.1243 -26.19169,-3.0429 9.79457,3.01557 17.89489,4.79604 23.69584,8.57589 2.7415,1.78634 4.68487,3.85854 6.05105,6.41184 1.34375,2.51139 2.30114,5.82184 2.76301,10.31997 1.9898,-0.31144 3.98289,-0.60534 5.97894,-0.88209 z"
     id="path4209"
     inkscape:path-effect="#path-effect4211"
     inkscape:original-d="m 369.3448,176.90062 c -4.32453,-20.9803 -18.96606,-20.52106 -38.48884,-24.42561"
     inkscape:connector-curvature="0"
     sodipodi:nodetypes="cc" />
  <path
     style="fill:#ffffff;fill-opacity:1;fill-rule:nonzero;stroke:none;stroke-width:6;stroke-miterlimit:4;stroke-dasharray:none;stroke-opacity:1"
     d="m 424.11737,133.23059 c 1.31235,-1.70315 2.65261,-3.38082 4.02132,-5.03124 -6.27787,-5.30028 -9.66597,-10.22048 -11.25456,-16.02755 -1.7323,-6.3324 -1.30223,-13.531152 -0.16845,-22.61123 -3.12845,8.168994 -5.96182,15.67168 -6.28316,23.23887 -0.3259,7.67437 1.90465,15.51088 8.33607,24.04774 1.80275,-1.18006 3.58552,-2.38626 5.34878,-3.61659 z"
     id="path4213"
     inkscape:path-effect="#path-effect4215"
     inkscape:original-d="m 424.11737,133.23059 c -13.70333,-14.36735 -11.72023,-26.3959 -7.40169,-43.67002"
     inkscape:connector-curvature="0"
     sodipodi:nodetypes="cc" />
  <path
     style="fill:#ffffff;fill-opacity:1;fill-rule:nonzero;stroke:none;stroke-width:6;stroke-miterlimit:4;stroke-dasharray:none;stroke-opacity:1"
     d="m 475.92927,94.00159 c 1.64312,-0.509876 3.28853,-1.011727 4.93618,-1.505573 -2.51579,-6.275453 -3.37811,-12.789622 -3.28948,-19.743048 0.0888,-6.968839 1.11715,-13.905833 2.05415,-20.941069 -2.5597,6.446859 -5.33084,13.214644 -7.16318,20.230195 -1.84089,7.048277 -2.8456,14.740556 -1.58568,23.037098 1.68456,-0.351218 3.36724,-0.710413 5.04801,-1.077603 z"
     id="path4217"
     inkscape:path-effect="#path-effect4219"
     inkscape:original-d="m 475.92927,94.00159 c -3.85988,-14.62813 0.16755,-28.64536 3.70085,-42.18969"
     inkscape:connector-curvature="0"
     sodipodi:nodetypes="cc" />
  <path
     style="fill:#ffffff;fill-opacity:1;fill-rule:nonzero;stroke:none;stroke-width:6;stroke-miterlimit:4;stroke-dasharray:none;stroke-opacity:1"
     d="m 559.13892,50.279265 c -7.25803,-4.835148 -13.76211,-8.667537 -20.46821,-11.479577 -6.74476,-2.828253 -13.40786,-4.510845 -21.29192,-5.492038 7.09572,3.578228 12.22901,7.603544 16.81898,12.261327 4.53148,4.598439 8.78971,10.086343 13.95753,16.657598 z"
     id="path4225"
     inkscape:path-effect="#path-effect4227"
     inkscape:original-d="M 553.64711,56.25292 C 541.17495,44.78679 532.30772,37.85124 517.37879,33.30765"
     inkscape:connector-curvature="0"
     sodipodi:nodetypes="cc" />
  <path
     style="fill:#ffffff;fill-opacity:1;fill-rule:nonzero;stroke:none;stroke-width:6;stroke-miterlimit:4;stroke-dasharray:none;stroke-opacity:1"
     d="M 617.65767,43.437203 C 614.09981,33.506651 609.69414,25.450224 604.09716,18.434524 598.5427,11.472115 591.93183,5.6819022 583.99408,0 c 6.18213,7.6702241 10.40512,14.873594 13.22905,22.409166 2.79252,7.451753 4.24771,15.321085 4.91926,24.454371 z"
     id="path4229"
     inkscape:path-effect="#path-effect4231"
     inkscape:original-d="M 609.90003,45.15037 C 605.68837,26.07895 598.10732,13.32918 583.99408,0"
     inkscape:connector-curvature="0"
     sodipodi:nodetypes="cc" />
  <path
     style="fill:#ffffff;fill-opacity:1;fill-rule:nonzero;stroke:none;stroke-width:6;stroke-miterlimit:4;stroke-dasharray:none;stroke-opacity:1"
     d="m 640.24699,59.2136 c 3.00461,0.755484 6.0045,1.532086 8.99093,2.332787 3.21455,-10.069517 5.684,-17.357202 9.46185,-22.78009 2.04317,-2.932856 4.62433,-5.558545 8.23125,-7.856326 3.62489,-2.309224 8.19243,-4.225348 14.02532,-5.744191 -5.96432,-0.03594 -11.14084,0.368716 -15.77841,1.404619 -4.68578,1.04667 -8.86842,2.747731 -12.81317,5.306329 -7.48319,4.853662 -13.39861,12.347651 -19.56241,21.766099 2.47311,1.86331 4.96083,3.722549 7.44464,5.570773 z"
     id="path4233"
     inkscape:path-effect="#path-effect4235"
     inkscape:original-d="m 640.24699,59.2136 c 10.0905,-21.26625 17.10045,-31.09671 40.70935,-34.04782"
     inkscape:connector-curvature="0"
     sodipodi:nodetypes="cc" />
  <path
     style="fill:#ffffff;fill-opacity:1;fill-rule:nonzero;stroke:none;stroke-width:6;stroke-miterlimit:4;stroke-dasharray:none;stroke-opacity:1"
     d="m 676.8854,88.820399 c 1.54453,2.32199 3.30538,4.531187 5.38269,6.542224 5.15116,-0.648451 9.34782,-2.530186 12.69517,-5.153937 3.31392,-2.59754 5.67064,-5.820253 7.46166,-9.1409 4.08498,-7.573784 5.97808,-17.376914 8.13822,-24.074696 -4.58973,6.493159 -8.05582,14.344627 -13.66681,20.131303 -2.22278,2.292374 -4.52613,3.942204 -6.97072,4.902121 -2.39559,0.940675 -4.99741,1.247442 -8.05906,0.878779 -1.15739,2.123608 -2.83133,4.120305 -4.98115,5.915106 z"
     id="path4237"
     inkscape:path-effect="#path-effect4239"
     inkscape:original-d="M 676.8854,88.820399 C 699.33913,92.078409 703.93968,70.24 710.56314,56.99309"
     inkscape:connector-curvature="0"
     sodipodi:nodetypes="cc" />
  <path
     style="fill:#ffffff;fill-opacity:1;fill-rule:nonzero;stroke:none;stroke-width:6;stroke-miterlimit:4;stroke-dasharray:none;stroke-opacity:1"
     d="m 700.31306,114.75536 c 7.78413,-4.0608 13.91549,-6.35975 20.37383,-7.31738 6.65396,-0.98664 13.71035,-0.58079 23.0941,0.62683 -8.56777,-3.44569 -15.53782,-6.32257 -22.89286,-7.72333 -7.53956,-1.435895 -15.39256,-1.322496 -25.42029,1.03278 z"
     id="path4241"
     inkscape:path-effect="#path-effect4243"
     inkscape:original-d="m 697.89045,108.06481 c 17.81806,-6.45182 27.94392,-4.68172 45.89054,0"
     inkscape:connector-curvature="0"
     sodipodi:nodetypes="cc" />
  <path
     style="fill:#ffffff;fill-opacity:1;fill-rule:nonzero;stroke:none;stroke-width:6;stroke-miterlimit:4;stroke-dasharray:none;stroke-opacity:1"
     d="m 721.58957,156.88069 c 11.28019,-2.25051 22.64006,-7.25274 32.71559,-12.03891 10.22181,-4.85566 20.09891,-9.98912 28.79463,-13.09153 -9.39057,0.48964 -20.34781,3.09801 -31.38117,5.37772 -11.21811,2.31787 -21.94794,4.15654 -31.45715,3.53966 z"
     id="path4245"
     inkscape:path-effect="#path-effect4247"
     inkscape:original-d="m 720.92552,148.77416 c 20.8327,-1.70651 44.0062,-13.39029 62.17427,-17.02391"
     inkscape:connector-curvature="0"
     sodipodi:nodetypes="cc" />
  <path
     style="fill:#ffffff;fill-opacity:1;fill-rule:nonzero;stroke:none;stroke-width:6;stroke-miterlimit:4;stroke-dasharray:none;stroke-opacity:1"
     d="m 733.08409,198.2583 c 9.72004,-3.60586 16.54839,-5.02506 22.86643,-4.41009 6.72726,0.65481 13.28109,3.61424 22.00528,8.95836 -6.82896,-7.02962 -12.60741,-12.72172 -19.87604,-16.15345 -7.57075,-3.57436 -16.45513,-4.59343 -28.51365,-2.98372 z"
     id="path4249"
     inkscape:path-effect="#path-effect4251"
     inkscape:original-d="m 731.3251,190.96385 c 21.85883,-5.27105 31.10438,-0.57834 46.6307,11.84272"
     inkscape:connector-curvature="0"
     sodipodi:nodetypes="cc" />
  <path
     style="fill:#ffffff;fill-opacity:1;fill-rule:nonzero;stroke:none;stroke-width:6;stroke-miterlimit:4;stroke-dasharray:none;stroke-opacity:1"
     d="m 713.52382,236.85438 c -2.10617,1.35302 -4.20483,2.71842 -6.29554,4.09645 2.78234,3.50257 5.61428,6.15202 8.55908,8.0495 2.96534,1.91072 5.8761,2.9519 8.75848,3.465 5.36263,0.95461 11.45011,0.061 17.84461,-0.0674 -6.63585,-2.42504 -11.43389,-4.01485 -14.95802,-6.91537 -1.63316,-1.34417 -2.8524,-2.86513 -3.94704,-4.7278 -1.08102,-1.8395 -2.17384,-4.24878 -3.32574,-7.41457 -2.2041,1.18536 -4.41619,2.35667 -6.63583,3.51417 z"
     id="path4253"
     inkscape:path-effect="#path-effect4255"
     inkscape:original-d="m 713.52382,236.85438 c 8.01126,13.80397 15.60737,13.3337 28.86663,15.54357"
     inkscape:connector-curvature="0"
     sodipodi:nodetypes="cc" />
  <path
     style="fill:#ffffff;fill-opacity:1;fill-rule:nonzero;stroke:none;stroke-width:6;stroke-miterlimit:4;stroke-dasharray:none;stroke-opacity:1"
     d="m 681.18669,278.43748 c 10.90773,2.09259 19.27488,5.06065 26.55745,9.63673 7.39009,4.64364 13.79135,11.01106 20.58308,19.83649 -5.05589,-9.76975 -10.11107,-17.76264 -16.90451,-24.4475 -6.87013,-6.76031 -15.37631,-12.05281 -26.99588,-16.39542 z"
     id="path4257"
     inkscape:path-effect="#path-effect4259"
     inkscape:original-d="m 682.80676,272.75263 c 22.54163,6.42391 33.68932,16.56627 45.52046,35.15807"
     inkscape:connector-curvature="0"
     sodipodi:nodetypes="cc" />
  <path
     style="fill:#ffffff;fill-opacity:1;fill-rule:nonzero;stroke:none;stroke-width:6;stroke-miterlimit:4;stroke-dasharray:none;stroke-opacity:1"
     d="m 649.8692,311.61155 c -1.16994,1.39744 -2.32326,2.81177 -3.45078,4.24623 4.15107,6.39196 8.26524,10.27567 12.80575,13.04282 4.8079,2.93012 10.20369,4.6403 16.55098,7.13655 -5.7773,-4.15941 -9.90648,-7.20228 -13.20045,-11.12844 -2.86065,-3.40968 -5.07037,-7.48058 -7.29979,-13.56461 -1.779,0.158 -3.58241,0.24572 -5.40571,0.26745 z"
     id="path4261"
     inkscape:path-effect="#path-effect4263"
     inkscape:original-d="m 649.8692,311.61155 c 7.04437,14.85325 13.73427,17.7865 25.90595,24.4256"
     inkscape:connector-curvature="0"
     sodipodi:nodetypes="cc" />
  <path
     style="fill:#ffffff;fill-opacity:1;fill-rule:nonzero;stroke:none;stroke-width:6;stroke-miterlimit:4;stroke-dasharray:none;stroke-opacity:1"
     d="m 617.22988,351.67747 c 8.60954,7.03695 13.20376,14.07817 18.72753,22.03503 5.49258,7.91194 11.04152,15.26909 21.29808,21.82943 -8.76078,-8.10818 -12.32264,-16.43727 -15.66066,-24.85875 -3.34033,-8.42732 -6.82591,-18.11352 -15.33921,-28.08125 z"
     id="path4265"
     inkscape:path-effect="#path-effect4267"
     inkscape:original-d="m 621.74275,347.1397 c 17.02207,16.92864 16.56267,33.75899 35.51274,48.40223"
     inkscape:connector-curvature="0"
     sodipodi:nodetypes="cc" />
  <path
     style="fill:#ffffff;fill-opacity:1;fill-rule:nonzero;stroke:none;stroke-width:6;stroke-miterlimit:4;stroke-dasharray:none;stroke-opacity:1"
     d="m 584.74382,392.1511 c 12.99991,4.16671 24.32961,11.30849 36.25876,20.12356 -8.53266,-11.54698 -17.77509,-22.86197 -30.35654,-31.68834 z"
     id="path4269"
     inkscape:path-effect="#path-effect4271"
     inkscape:original-d="m 587.69493,386.36871 c 12.75282,6.50856 23.1146,15.7129 33.30765,25.90595"
     inkscape:connector-curvature="0"
     sodipodi:nodetypes="cc" />
  <path
     style="fill:#ffffff;fill-opacity:1;fill-rule:nonzero;stroke:none;stroke-width:6;stroke-miterlimit:4;stroke-dasharray:none;stroke-opacity:1"
     d="m 553.37224,420.34554 c 6.81826,5.75929 12.55827,12.7921 18.4414,20.49339 5.83723,7.64122 11.49981,15.501 18.1018,22.50745 -4.82112,-8.20356 -8.5889,-17.06977 -12.58842,-25.81233 -3.9713,-8.68088 -8.38435,-17.74466 -14.523,-25.92857 z"
     id="path4273"
     inkscape:path-effect="#path-effect4275"
     inkscape:original-d="m 558.08813,415.97551 c 12.93011,13.95344 20.41332,32.15222 31.82731,47.37087"
     inkscape:connector-curvature="0"
     sodipodi:nodetypes="cc" />
  <path
     style="fill:#ffffff;fill-opacity:1;fill-rule:nonzero;stroke:none;stroke-width:6;stroke-miterlimit:4;stroke-dasharray:none;stroke-opacity:1"
     d="m 515.76881,457.12297 c 5.13239,4.4929 10.35654,7.13648 15.51275,9.02435 5.05968,1.85253 10.39962,3.08969 15.70402,4.60076 -4.77799,-3.14409 -9.15952,-5.83244 -13.21558,-9.07899 -4.01432,-3.21314 -7.37986,-6.72065 -10.34021,-11.34372 z"
     id="path4277"
     inkscape:path-effect="#path-effect4279"
     inkscape:original-d="m 519.5993,453.72417 c 8.0695,9.09443 17.27235,12.38836 27.38628,17.02391"
     inkscape:connector-curvature="0"
     sodipodi:nodetypes="cc" />
  <path
     style="fill:#ffffff;fill-opacity:1;fill-rule:nonzero;stroke:none;stroke-width:6;stroke-miterlimit:4;stroke-dasharray:none;stroke-opacity:1"
     d="m 490.07159,474.3811 c 8.7157,3.37429 14.80119,8.72311 19.56315,16.25153 4.83939,7.65082 7.81658,16.77663 10.70472,26.74616 -0.35257,-9.9746 -0.93006,-20.39265 -3.81942,-29.85262 -2.95285,-9.66783 -8.53123,-19.02037 -19.20493,-26.33247 z"
     id="path4281"
     inkscape:path-effect="#path-effect4283"
     inkscape:original-d="m 493.69335,467.7874 c 19.35887,10.63336 23.44987,29.61484 26.64611,49.59139"
     inkscape:connector-curvature="0"
     sodipodi:nodetypes="cc" />
  <path
     style="fill:#ffffff;fill-opacity:1;fill-rule:nonzero;stroke:none;stroke-width:6;stroke-miterlimit:4;stroke-dasharray:none;stroke-opacity:1"
     d="m 442.40615,502.96575 c 6.62084,6.84148 13.2966,10.38462 20.0562,12.49976 6.53035,2.04342 13.56162,2.85646 20.86862,4.13379 -6.93274,-3.52544 -12.73461,-6.34638 -17.81548,-10.1844 -4.95037,-3.73944 -8.80627,-8.15501 -12.31602,-14.63157 z"
     id="path4285"
     inkscape:path-effect="#path-effect4287"
     inkscape:original-d="m 447.80281,498.87454 c 10.08848,13.30757 21.23177,15.95929 35.52816,20.72476"
     inkscape:connector-curvature="0"
     sodipodi:nodetypes="cc" />
  <path
     style="fill:#ffffff;fill-opacity:1;fill-rule:nonzero;stroke:none;stroke-width:6;stroke-miterlimit:4;stroke-dasharray:none;stroke-opacity:1"
     d="m 403.20701,518.23359 c 3.51619,6.28584 7.59856,10.45405 11.72345,13.48483 4.00382,2.94182 8.10372,4.83363 11.48422,6.52464 3.43386,1.7177 6.67408,3.46521 9.50586,6.27391 2.87104,2.84765 5.47635,6.93367 7.29247,13.29275 -0.57847,-6.55419 -2.04448,-11.4233 -4.27462,-15.51051 -2.2524,-4.128 -5.14152,-7.20357 -8.13322,-10.1442 -3.08611,-3.03344 -5.69222,-5.40417 -8.13119,-8.60851 -2.30144,-3.02365 -4.25157,-6.57317 -5.77269,-11.46353 z"
     id="path4289"
     inkscape:path-effect="#path-effect4291"
     inkscape:original-d="m 410.05415,515.15828 c 10.04753,22.37069 28.38159,16.85417 33.15886,42.65144"
     inkscape:connector-curvature="0"
     sodipodi:nodetypes="cc" />
  <path
     style="fill:#ffffff;fill-opacity:1;fill-rule:nonzero;stroke:none;stroke-width:6;stroke-miterlimit:4;stroke-dasharray:none;stroke-opacity:1"
     d="m 369.93456,529.0191 c 7.29227,5.76819 10.90533,10.47207 13.14014,14.87775 1.47842,2.91454 4.17434,11.13543 5.51452,13.45111 0.46509,-4.06739 2.53743,-8.77096 2.66801,-15.06941 0.13778,-6.64538 -1.86528,-14.87472 -9.17913,-24.69735 z"
     id="path4293"
     inkscape:path-effect="#path-effect4295"
     inkscape:original-d="m 376.00633,523.30015 c 14.69733,15.60407 10.8674,25.81345 12.58289,34.04781"
     inkscape:connector-curvature="0"
     sodipodi:nodetypes="cc" />
  <path
     style="fill:#ffffff;fill-opacity:1;fill-rule:nonzero;stroke:none;stroke-width:6;stroke-miterlimit:4;stroke-dasharray:none;stroke-opacity:1"
     d="m 319.09322,527.62576 c 0.30054,6.62406 -2.10259,14.59463 -5.45392,22.47775 -3.50541,8.24556 -7.02526,14.35475 -9.42946,19.82734 3.94081,-3.629 9.74303,-9.48905 15.13116,-16.44045 5.25385,-6.77816 10.68572,-15.30268 12.91532,-24.15348 z"
     id="path4297"
     inkscape:path-effect="#path-effect4299"
     inkscape:original-d="m 325.67477,528.48134 c -2.0163,15.51039 -15.32104,32.84808 -21.46493,41.44951"
     inkscape:connector-curvature="0"
     sodipodi:nodetypes="cc" />
  <path
     style="fill:#ffffff;fill-opacity:1;fill-rule:nonzero;stroke:none;stroke-width:6;stroke-miterlimit:4;stroke-dasharray:none;stroke-opacity:1"
     d="m 207.24758,401.17211 c 0.21352,-2.33412 0.34602,-4.68244 0.39219,-7.0439 -10.51467,-1.73684 -18.75072,1.04941 -25.521,5.22976 -6.87585,4.24555 -13.09419,10.50294 -19.28138,15.87737 7.89073,-3.69106 14.86137,-7.57196 22.10871,-9.41806 6.70046,-1.7068 12.59771,-1.37608 19.02665,1.53696 0.99897,-2.09736 2.09181,-4.15864 3.27483,-6.18213 z"
     id="path4301"
     inkscape:path-effect="#path-effect4303"
     inkscape:original-d="m 207.24758,401.17211 c -18.12887,-5.80991 -30.30811,4.89688 -44.41019,14.06323"
     inkscape:connector-curvature="0"
     sodipodi:nodetypes="cc" />
  <path
     style="fill:#ffffff;fill-opacity:1;fill-rule:nonzero;stroke:none;stroke-width:6;stroke-miterlimit:4;stroke-dasharray:none;stroke-opacity:1"
     d="m 206.58365,356.9251 c -8.28444,3.04631 -17.33429,3.01572 -27.10085,1.20764 -9.74055,-1.80327 -19.3042,-5.18459 -28.48813,-8.03236 8.18476,4.56859 17.29467,9.91971 26.81213,13.71919 9.51455,3.79832 20.22058,6.38041 31.58505,4.62187 z"
     id="path4305"
     inkscape:path-effect="#path-effect4307"
     inkscape:original-d="m 207.98775,362.68327 c -19.61907,4.78402 -39.63111,-5.14204 -56.99308,-12.58289"
     inkscape:connector-curvature="0"
     sodipodi:nodetypes="cc" />
</svg>
