<?xml version="1.0" encoding="UTF-8" standalone="no"?>
<!-- Created with Inkscape (http://www.inkscape.org/) -->

<svg
   xmlns:dc="http://purl.org/dc/elements/1.1/"
   xmlns:cc="http://creativecommons.org/ns#"
   xmlns:rdf="http://www.w3.org/1999/02/22-rdf-syntax-ns#"
   xmlns:svg="http://www.w3.org/2000/svg"
   xmlns="http://www.w3.org/2000/svg"
   xmlns:sodipodi="http://sodipodi.sourceforge.net/DTD/sodipodi-0.dtd"
   xmlns:inkscape="http://www.inkscape.org/namespaces/inkscape"
   width="155.71291mm"
   height="141.23515mm"
   viewBox="0 0 551.73864 500.43952"
   id="svg2"
   version="1.1"
   inkscape:version="0.91 r13725"
   sodipodi:docname="fungismash_icon.svg">
  <defs
     id="defs4" />
  <sodipodi:namedview
     id="base"
     pagecolor="#ffffff"
     bordercolor="#666666"
     borderopacity="1.0"
     inkscape:pageopacity="0.0"
     inkscape:pageshadow="2"
     inkscape:zoom="0.94280904"
     inkscape:cx="180.79887"
     inkscape:cy="217.55574"
     inkscape:document-units="px"
     inkscape:current-layer="layer1"
     showgrid="false"
     inkscape:window-width="1920"
     inkscape:window-height="1151"
     inkscape:window-x="0"
     inkscape:window-y="25"
     inkscape:window-maximized="1"
     fit-margin-top="0"
     fit-margin-left="0"
     fit-margin-right="0"
     fit-margin-bottom="0" />
  <metadata
     id="metadata7">
    <rdf:RDF>
      <cc:Work
         rdf:about="">
        <dc:format>image/svg+xml</dc:format>
        <dc:type
           rdf:resource="http://purl.org/dc/dcmitype/StillImage" />
        <dc:title />
      </cc:Work>
    </rdf:RDF>
  </metadata>
  <g
     inkscape:label="Layer 1"
     inkscape:groupmode="layer"
     id="layer1"
     transform="translate(-92.796973,-250.04397)">
    <path
       style="fill:#454037;fill-opacity:1;fill-rule:nonzero;stroke:#000000;stroke-width:6;stroke-linecap:round;stroke-linejoin:round;stroke-miterlimit:4;stroke-dasharray:none;stroke-opacity:1"
       d="m 103.00296,453.51485 c 0,0 77.08984,-31.30979 132.71133,-40.08122 34.83096,-5.4928 53.57142,-9.64285 130.71428,-5.71428 77.14286,3.92857 -126.73009,34.06856 -126.73009,34.06856 0,0 -125.6241,21.36979 -136.69552,11.72694 z"
       id="path4272"
       inkscape:connector-curvature="0"
       sodipodi:nodetypes="csscc" />
    <path
       style="fill:#ffffff;fill-opacity:1;fill-rule:nonzero;stroke:#000000;stroke-width:6;stroke-linecap:round;stroke-linejoin:round;stroke-miterlimit:4;stroke-dasharray:none;stroke-opacity:1"
       d="m 297.14286,712.00507 c -9.23175,-3.6927 38.90551,-215.00923 51.78571,-300.71429 14.58996,-97.08187 63.57143,-17.5 63.57143,-17.5 0,0 23.21429,150.71429 -27.85714,285.35714 -49.95087,131.68865 -87.5,32.85715 -87.5,32.85715 z"
       id="path3468"
       inkscape:connector-curvature="0"
       sodipodi:nodetypes="cscsc" />
    <path
       style="fill:#e0cc99;fill-opacity:1;fill-rule:nonzero;stroke:#000000;stroke-width:6;stroke-linecap:round;stroke-linejoin:round;stroke-miterlimit:4;stroke-dasharray:none;stroke-opacity:1"
       d="m 106.5,452.7372 c 0,0 -12.375,6.375 -10.5,-23.625 1.875,-30 162.375,-170.625 269.25,-175.875 106.875,-5.25 262.875,98.625 275.625,160.125 12.75,61.5 -156.375,-0.375 -223.5,-3.75 -67.125,-3.375 -210,-11.625 -310.875,43.125 z"
       id="path4274"
       inkscape:connector-curvature="0" />
  </g>
</svg>
